G04 Layer_Color=16711935*
%FSAX24Y24*%
%MOIN*%
G70*
G01*
G75*
%ADD61R,0.0606X0.0528*%
%ADD63R,0.0409X0.0528*%
%ADD64R,0.0528X0.0409*%
%ADD65R,0.0646X0.0646*%
%ADD73C,0.1394*%
%ADD74C,0.0764*%
%ADD75C,0.1394*%
%ADD76C,0.0567*%
%ADD77C,0.0606*%
%ADD78R,0.0606X0.0606*%
%ADD79C,0.1616*%
%ADD80C,0.0882*%
%ADD81O,0.0882X0.0606*%
%ADD82C,0.0803*%
%ADD83R,0.0803X0.0803*%
%ADD84R,0.0882X0.0882*%
%ADD85R,0.0882X0.0882*%
%ADD86C,0.0816*%
%ADD87C,0.0616*%
%ADD88R,0.0606X0.0606*%
%ADD89C,0.1197*%
%ADD90C,0.1591*%
%ADD91C,0.0516*%
%ADD92C,0.3559*%
%ADD93R,0.0724X0.0102*%
%ADD94O,0.0102X0.0724*%
%ADD95R,0.0102X0.0724*%
%ADD96R,0.2181X0.0803*%
%ADD97R,0.0961X0.0252*%
%ADD98O,0.0961X0.0252*%
%ADD99O,0.0705X0.0272*%
%ADD100R,0.0705X0.0272*%
%ADD101R,0.0528X0.0606*%
%ADD102R,0.0252X0.0449*%
%ADD103R,0.0646X0.0646*%
%ADD104R,0.0416X0.0666*%
D61*
X234170Y109626D02*
D03*
Y110374D02*
D03*
X229890Y118006D02*
D03*
Y118754D02*
D03*
X234330Y118816D02*
D03*
Y119564D02*
D03*
X234150Y123356D02*
D03*
Y124104D02*
D03*
X229770Y122616D02*
D03*
Y123364D02*
D03*
X262350Y095124D02*
D03*
Y094376D02*
D03*
X261200D02*
D03*
Y095124D02*
D03*
X229950Y113446D02*
D03*
Y114194D02*
D03*
X260750Y104724D02*
D03*
Y103976D02*
D03*
D63*
X246624Y118090D02*
D03*
X245836D02*
D03*
X244944D02*
D03*
X244156D02*
D03*
X247406D02*
D03*
X248194D02*
D03*
X250874Y117230D02*
D03*
X250086D02*
D03*
X248966Y118100D02*
D03*
X249754D02*
D03*
X239534Y124520D02*
D03*
X238746D02*
D03*
X241164D02*
D03*
X240376D02*
D03*
X238796Y121250D02*
D03*
X239584D02*
D03*
X241244D02*
D03*
X240456D02*
D03*
X240384Y120330D02*
D03*
X239596D02*
D03*
X239784Y115920D02*
D03*
X238996D02*
D03*
X232404Y106550D02*
D03*
X231616D02*
D03*
X233246D02*
D03*
X234034D02*
D03*
X232456Y107470D02*
D03*
X233244D02*
D03*
X231644Y110530D02*
D03*
X230856D02*
D03*
X233244D02*
D03*
X232456D02*
D03*
X232466Y111460D02*
D03*
X233254D02*
D03*
X233264Y112350D02*
D03*
X232476D02*
D03*
X234100D02*
D03*
X234700D02*
D03*
X230836Y115100D02*
D03*
X231624D02*
D03*
X233254D02*
D03*
X232466D02*
D03*
X234690Y115110D02*
D03*
X234090D02*
D03*
X232456Y117020D02*
D03*
X233244D02*
D03*
X234944D02*
D03*
X234156D02*
D03*
X233176Y117910D02*
D03*
X233964D02*
D03*
X232456Y120590D02*
D03*
X233244D02*
D03*
X233194Y121520D02*
D03*
X232406D02*
D03*
X233990Y121510D02*
D03*
X234590D02*
D03*
X233954Y122410D02*
D03*
X233166D02*
D03*
X235410Y122400D02*
D03*
X234810D02*
D03*
X260791Y115575D02*
D03*
X260004D02*
D03*
X239784Y116820D02*
D03*
X238996D02*
D03*
X263391Y115445D02*
D03*
X262604D02*
D03*
X226131Y146557D02*
D03*
X226918D02*
D03*
X271654Y147332D02*
D03*
X270867D02*
D03*
D64*
X266540Y117734D02*
D03*
Y116946D02*
D03*
X245433Y116201D02*
D03*
Y115413D02*
D03*
X247333Y115119D02*
D03*
Y114331D02*
D03*
X248283Y115119D02*
D03*
Y114331D02*
D03*
X249921Y116240D02*
D03*
Y115453D02*
D03*
X240689Y117214D02*
D03*
Y116426D02*
D03*
X230820Y109614D02*
D03*
Y108826D02*
D03*
X234030Y105720D02*
D03*
Y105120D02*
D03*
X229930Y109756D02*
D03*
Y110544D02*
D03*
X228970Y110546D02*
D03*
Y111334D02*
D03*
Y112170D02*
D03*
Y112770D02*
D03*
X230890Y114214D02*
D03*
Y113426D02*
D03*
X233490D02*
D03*
Y114214D02*
D03*
X233300Y119584D02*
D03*
Y118796D02*
D03*
X233170Y124174D02*
D03*
Y123386D02*
D03*
X235130Y124104D02*
D03*
Y123316D02*
D03*
X236950Y133606D02*
D03*
Y134394D02*
D03*
X233400Y138456D02*
D03*
Y139244D02*
D03*
X230700Y123354D02*
D03*
Y122566D02*
D03*
X230840Y118784D02*
D03*
Y117996D02*
D03*
D65*
X264838Y118774D02*
D03*
Y117436D02*
D03*
D73*
X248839Y156604D02*
D03*
X240650Y153250D02*
D03*
X256033Y123346D02*
D03*
X226368Y140256D02*
D03*
Y142451D02*
D03*
X243278Y145463D02*
D03*
X260128Y137470D02*
D03*
X243681Y139783D02*
D03*
X249459Y131752D02*
D03*
X260709Y147250D02*
D03*
X254000Y154400D02*
D03*
X251600Y130150D02*
D03*
X261703Y129419D02*
D03*
X264439Y125098D02*
D03*
D74*
X252400Y154400D02*
D03*
X247400D02*
D03*
X241500Y143500D02*
D03*
Y148500D02*
D03*
X242700Y153500D02*
D03*
Y148500D02*
D03*
X246300Y151750D02*
D03*
Y156750D02*
D03*
X231100Y138700D02*
D03*
Y143700D02*
D03*
X237600Y141650D02*
D03*
X232600D02*
D03*
X238550D02*
D03*
X243550D02*
D03*
X237250Y136600D02*
D03*
X242250D02*
D03*
X232550Y131750D02*
D03*
X237550D02*
D03*
X235157Y137628D02*
D03*
X230157D02*
D03*
X235197Y136093D02*
D03*
X230197D02*
D03*
X230900Y129900D02*
D03*
Y134900D02*
D03*
X265850Y099700D02*
D03*
Y104700D02*
D03*
X258500Y099400D02*
D03*
Y104400D02*
D03*
X270079Y107200D02*
D03*
X265079D02*
D03*
X265796Y113589D02*
D03*
X260796D02*
D03*
X261000Y125410D02*
D03*
X256000D02*
D03*
X259321Y129085D02*
D03*
X254321D02*
D03*
X271004Y129203D02*
D03*
X266004D02*
D03*
X268071Y130561D02*
D03*
X263071D02*
D03*
X254400Y136050D02*
D03*
Y131050D02*
D03*
X266548Y115825D02*
D03*
Y120825D02*
D03*
X247250Y138100D02*
D03*
X242250D02*
D03*
X247250Y135100D02*
D03*
X252250D02*
D03*
X237800D02*
D03*
X242800D02*
D03*
X238450Y131750D02*
D03*
X243450D02*
D03*
X261043Y153268D02*
D03*
X256043D02*
D03*
X265079Y108350D02*
D03*
X260079D02*
D03*
X254150Y099450D02*
D03*
Y094450D02*
D03*
X270150Y099450D02*
D03*
Y094450D02*
D03*
D75*
X228050Y129750D02*
D03*
Y138648D02*
D03*
X234550Y155250D02*
D03*
X225652D02*
D03*
D76*
X254291Y126880D02*
D03*
Y127880D02*
D03*
X266014Y126900D02*
D03*
Y127900D02*
D03*
X263061Y127890D02*
D03*
Y126890D02*
D03*
X257309Y127859D02*
D03*
Y126859D02*
D03*
X259915Y155325D02*
D03*
X260915D02*
D03*
X256689Y094469D02*
D03*
Y095469D02*
D03*
X267589D02*
D03*
Y094469D02*
D03*
D77*
X268861Y140082D02*
D03*
X271004Y122772D02*
D03*
Y123772D02*
D03*
Y124772D02*
D03*
X269939Y147226D02*
D03*
Y146242D02*
D03*
X269152D02*
D03*
Y147226D02*
D03*
X227763Y146558D02*
D03*
Y147542D02*
D03*
X228550D02*
D03*
Y146558D02*
D03*
X262642Y096513D02*
D03*
X261658D02*
D03*
Y097300D02*
D03*
X262642D02*
D03*
X268862Y137874D02*
D03*
Y138976D02*
D03*
D78*
X269861Y140082D02*
D03*
X269862Y137874D02*
D03*
Y138976D02*
D03*
D79*
X237400Y147250D02*
D03*
X233400D02*
D03*
D80*
X252625Y137190D02*
D03*
X251050D02*
D03*
X239650Y155300D02*
D03*
X240650D02*
D03*
X232600Y138700D02*
D03*
Y139700D02*
D03*
X232550Y132900D02*
D03*
Y133900D02*
D03*
D81*
X239800Y139984D02*
D03*
Y139000D02*
D03*
Y138016D02*
D03*
X244750Y136084D02*
D03*
Y135100D02*
D03*
Y134116D02*
D03*
X245300Y153416D02*
D03*
Y154400D02*
D03*
Y155384D02*
D03*
D82*
X234150Y140193D02*
D03*
Y139291D02*
D03*
X236000Y138386D02*
D03*
Y139288D02*
D03*
Y133447D02*
D03*
Y134348D02*
D03*
X234150Y135253D02*
D03*
Y134352D02*
D03*
D83*
Y138389D02*
D03*
X236000Y140189D02*
D03*
Y135250D02*
D03*
X234150Y133450D02*
D03*
D84*
X241650Y155300D02*
D03*
D85*
X232600Y140700D02*
D03*
X232550Y134900D02*
D03*
D86*
X236600Y157450D02*
D03*
Y153450D02*
D03*
D87*
X241211Y123258D02*
D03*
D88*
X271004Y121772D02*
D03*
D89*
X247185Y126064D02*
D03*
X239508D02*
D03*
X231831D02*
D03*
X239508Y097521D02*
D03*
X247185D02*
D03*
X231831D02*
D03*
D90*
X271002Y149096D02*
D03*
Y144372D02*
D03*
X226700Y144688D02*
D03*
Y149412D02*
D03*
X264512Y095450D02*
D03*
X259788D02*
D03*
D91*
X237185Y133396D02*
D03*
X254006Y150906D02*
D03*
X238190Y127180D02*
D03*
X243260Y122460D02*
D03*
X249275Y133845D02*
D03*
X237040Y112350D02*
D03*
Y119240D02*
D03*
X236410Y115140D02*
D03*
X236420Y119230D02*
D03*
X230120Y120130D02*
D03*
X230130Y121040D02*
D03*
X229360Y115020D02*
D03*
X233190Y109150D02*
D03*
X234740Y113400D02*
D03*
X234420Y111460D02*
D03*
X234870Y116330D02*
D03*
X229930Y109000D02*
D03*
X231968Y108430D02*
D03*
X231970Y117490D02*
D03*
X231967Y122047D02*
D03*
X258760Y133320D02*
D03*
X260980Y131640D02*
D03*
X260971Y132760D02*
D03*
X261570Y133970D02*
D03*
X264650Y132190D02*
D03*
X259420Y106700D02*
D03*
X260130Y119780D02*
D03*
X261671Y121449D02*
D03*
X264710Y116710D02*
D03*
X264726Y118099D02*
D03*
X262942Y120660D02*
D03*
X255600Y132250D02*
D03*
X267400Y151450D02*
D03*
X262900Y150600D02*
D03*
X267400Y152600D02*
D03*
X262250Y152150D02*
D03*
X235300Y131750D02*
D03*
X260400Y098450D02*
D03*
X263031Y100394D02*
D03*
X262047Y103583D02*
D03*
X264074Y106550D02*
D03*
X261811Y107087D02*
D03*
X260944Y107519D02*
D03*
X259975Y104880D02*
D03*
X264291Y102244D02*
D03*
X264528Y105709D02*
D03*
X262936Y117320D02*
D03*
X261843Y117122D02*
D03*
X231634Y123976D02*
D03*
X231832Y119553D02*
D03*
X256673Y113061D02*
D03*
X258986Y127943D02*
D03*
X243996Y119852D02*
D03*
X243593Y116181D02*
D03*
X254606Y116289D02*
D03*
X254626Y120945D02*
D03*
X238968Y121856D02*
D03*
X244587Y115384D02*
D03*
X250669Y115394D02*
D03*
X258100Y112057D02*
D03*
X263888Y112047D02*
D03*
X257313Y119626D02*
D03*
X256457Y119823D02*
D03*
X263061Y123356D02*
D03*
X260738D02*
D03*
X258120Y122343D02*
D03*
X258130Y117992D02*
D03*
X257717Y120089D02*
D03*
X257717Y121555D02*
D03*
X260738Y122736D02*
D03*
X265197Y122717D02*
D03*
X265305Y123888D02*
D03*
X261181Y123878D02*
D03*
X258602Y120020D02*
D03*
X258543Y123819D02*
D03*
X260797Y115069D02*
D03*
X256142Y114026D02*
D03*
X240984Y120335D02*
D03*
X250876Y117657D02*
D03*
X262372Y106417D02*
D03*
X260915Y133730D02*
D03*
X261870Y117953D02*
D03*
X264124Y115187D02*
D03*
X263458Y106669D02*
D03*
X261263Y104523D02*
D03*
X263287Y120049D02*
D03*
X263927Y116831D02*
D03*
X263396Y114970D02*
D03*
X231949Y112933D02*
D03*
X246604Y118780D02*
D03*
X237717Y122470D02*
D03*
X231978Y127412D02*
D03*
X227618Y125148D02*
D03*
D92*
X251837Y144749D02*
D03*
D93*
X263738Y119268D02*
D03*
Y119071D02*
D03*
Y118875D02*
D03*
Y118678D02*
D03*
Y118481D02*
D03*
Y118284D02*
D03*
Y118087D02*
D03*
Y117890D02*
D03*
Y117694D02*
D03*
Y117497D02*
D03*
Y117300D02*
D03*
Y117103D02*
D03*
X260195D02*
D03*
Y117300D02*
D03*
Y117497D02*
D03*
Y117694D02*
D03*
Y117890D02*
D03*
Y118087D02*
D03*
Y118284D02*
D03*
Y118481D02*
D03*
Y118678D02*
D03*
Y118875D02*
D03*
Y119071D02*
D03*
Y119268D02*
D03*
D94*
X263049Y116414D02*
D03*
D95*
X262852D02*
D03*
X262655D02*
D03*
X262458D02*
D03*
X262262D02*
D03*
X262065D02*
D03*
X261868D02*
D03*
X261671D02*
D03*
X261474D02*
D03*
X261277D02*
D03*
X261080D02*
D03*
X260884D02*
D03*
Y119957D02*
D03*
X261080D02*
D03*
X261277D02*
D03*
X261474D02*
D03*
X261671D02*
D03*
X261868D02*
D03*
X262065D02*
D03*
X262262D02*
D03*
X262458D02*
D03*
X262655D02*
D03*
X262852D02*
D03*
X263049D02*
D03*
D96*
X270768Y119275D02*
D03*
X267028D02*
D03*
D97*
X246826Y115750D02*
D03*
D98*
Y116250D02*
D03*
Y116750D02*
D03*
Y117250D02*
D03*
X248794Y115750D02*
D03*
Y116250D02*
D03*
Y116750D02*
D03*
Y117250D02*
D03*
D99*
X240395Y123720D02*
D03*
Y123220D02*
D03*
Y122720D02*
D03*
Y122220D02*
D03*
X238190Y123720D02*
D03*
Y123220D02*
D03*
Y122720D02*
D03*
D100*
Y122220D02*
D03*
D101*
X231554Y107780D02*
D03*
X230806D02*
D03*
X233944Y108430D02*
D03*
X233196D02*
D03*
X230556Y112470D02*
D03*
X231304D02*
D03*
X234406Y114140D02*
D03*
X235154D02*
D03*
X230496Y116990D02*
D03*
X231244D02*
D03*
X230616Y121440D02*
D03*
X231364D02*
D03*
X226150Y147557D02*
D03*
X226898D02*
D03*
X267106Y107205D02*
D03*
X267854D02*
D03*
X263674Y107194D02*
D03*
X262926D02*
D03*
X271614Y146368D02*
D03*
X270866D02*
D03*
D102*
X231716Y118796D02*
D03*
X232090D02*
D03*
X232464D02*
D03*
Y117851D02*
D03*
X231716D02*
D03*
Y114209D02*
D03*
X232090D02*
D03*
X232464D02*
D03*
Y113264D02*
D03*
X231716D02*
D03*
Y109622D02*
D03*
X232090D02*
D03*
X232464D02*
D03*
Y108678D02*
D03*
X231716D02*
D03*
X231656Y123382D02*
D03*
X232030D02*
D03*
X232404D02*
D03*
Y122438D02*
D03*
X231656D02*
D03*
D103*
X262278Y120925D02*
D03*
X263617D02*
D03*
D104*
X262125Y104400D02*
D03*
X263375D02*
D03*
M02*
