G04 Layer_Color=8388736*
%FSAX24Y24*%
%MOIN*%
G70*
G01*
G75*
%ADD27C,0.0500*%
%ADD61R,0.0606X0.0528*%
%ADD62R,0.1079X0.0567*%
%ADD63R,0.0409X0.0528*%
%ADD64R,0.0528X0.0409*%
%ADD65R,0.0646X0.0646*%
%ADD66O,0.0803X0.0252*%
%ADD67R,0.0803X0.0252*%
%ADD68R,0.0252X0.0882*%
%ADD69R,0.1394X0.0882*%
%ADD70R,0.0436X0.0336*%
%ADD71R,0.0266X0.0766*%
%ADD72O,0.0134X0.0488*%
%ADD73C,0.1394*%
%ADD74C,0.0764*%
%ADD75C,0.1394*%
%ADD76C,0.0567*%
%ADD77C,0.0606*%
%ADD78R,0.0606X0.0606*%
%ADD79C,0.1616*%
%ADD80C,0.0882*%
%ADD81O,0.0882X0.0606*%
%ADD82C,0.0803*%
%ADD83R,0.0803X0.0803*%
%ADD84R,0.0882X0.0882*%
%ADD85R,0.0882X0.0882*%
%ADD86C,0.0816*%
%ADD87C,0.0616*%
%ADD88R,0.0606X0.0606*%
%ADD89C,0.1197*%
%ADD90C,0.1591*%
%ADD91C,0.0516*%
%ADD92C,0.3559*%
D27*
X273268Y093150D02*
Y158346D01*
X224400Y093150D02*
X273268D01*
X224400D02*
Y158346D01*
X273268D01*
D61*
X259850Y099724D02*
D03*
Y098976D02*
D03*
D62*
X264400Y098859D02*
D03*
Y100041D02*
D03*
D63*
X262054Y118995D02*
D03*
X262841D02*
D03*
X262054Y120875D02*
D03*
X262841D02*
D03*
X260265Y121305D02*
D03*
X261052D02*
D03*
X260004Y115575D02*
D03*
X260791D02*
D03*
X264477Y115557D02*
D03*
X265265D02*
D03*
X255866Y130157D02*
D03*
X256654D02*
D03*
X230156Y139700D02*
D03*
X230944D02*
D03*
X265521Y117475D02*
D03*
X264734D02*
D03*
X264244Y152600D02*
D03*
X263456D02*
D03*
X269344D02*
D03*
X268556D02*
D03*
D64*
X262325Y118219D02*
D03*
Y117431D02*
D03*
X259398Y119788D02*
D03*
Y120575D02*
D03*
X267400Y154244D02*
D03*
Y153456D02*
D03*
X266450Y154244D02*
D03*
Y153456D02*
D03*
X233400Y138456D02*
D03*
Y139244D02*
D03*
X236950Y133606D02*
D03*
Y134394D02*
D03*
X262250Y154294D02*
D03*
Y153506D02*
D03*
X271400Y154244D02*
D03*
Y153456D02*
D03*
D65*
X230900Y133069D02*
D03*
Y131731D02*
D03*
D66*
X256649Y135750D02*
D03*
Y135250D02*
D03*
Y134750D02*
D03*
Y134250D02*
D03*
Y133750D02*
D03*
Y133250D02*
D03*
Y132750D02*
D03*
Y132250D02*
D03*
Y131750D02*
D03*
Y131250D02*
D03*
X260350Y135750D02*
D03*
Y135250D02*
D03*
Y134750D02*
D03*
Y134250D02*
D03*
Y133750D02*
D03*
Y133250D02*
D03*
Y132750D02*
D03*
Y132250D02*
D03*
Y131750D02*
D03*
D67*
Y131250D02*
D03*
D68*
X263350Y153500D02*
D03*
X265350D02*
D03*
X264850D02*
D03*
X264350D02*
D03*
X263850D02*
D03*
X268450Y153450D02*
D03*
X270450D02*
D03*
X269950D02*
D03*
X269450D02*
D03*
X268950D02*
D03*
D69*
X264350Y155941D02*
D03*
X269450Y155891D02*
D03*
D70*
X261560Y131626D02*
D03*
Y132374D02*
D03*
X262360Y132000D02*
D03*
D71*
X262800Y101300D02*
D03*
X262300D02*
D03*
X261800D02*
D03*
X261300D02*
D03*
X262800Y099300D02*
D03*
X262300D02*
D03*
X261800D02*
D03*
X261300D02*
D03*
D72*
X260487Y102893D02*
D03*
X260743D02*
D03*
X260998D02*
D03*
X261254D02*
D03*
X261510D02*
D03*
X261766D02*
D03*
X262022D02*
D03*
X262278D02*
D03*
X262534D02*
D03*
X262790D02*
D03*
X263046D02*
D03*
X263302D02*
D03*
X263557D02*
D03*
X263813D02*
D03*
X260487Y105807D02*
D03*
X260743D02*
D03*
X260998D02*
D03*
X261254D02*
D03*
X261510D02*
D03*
X261766D02*
D03*
X262022D02*
D03*
X262278D02*
D03*
X262534D02*
D03*
X262790D02*
D03*
X263046D02*
D03*
X263302D02*
D03*
X263557D02*
D03*
X263813D02*
D03*
D73*
X248839Y156604D02*
D03*
X240650Y153250D02*
D03*
X256033Y123346D02*
D03*
X226368Y140256D02*
D03*
Y142451D02*
D03*
X243278Y145463D02*
D03*
X260128Y137470D02*
D03*
X243681Y139783D02*
D03*
X249459Y131752D02*
D03*
X260709Y147250D02*
D03*
X254000Y154400D02*
D03*
X251600Y130150D02*
D03*
X261703Y129419D02*
D03*
X264439Y125098D02*
D03*
D74*
X252400Y154400D02*
D03*
X247400D02*
D03*
X241500Y143500D02*
D03*
Y148500D02*
D03*
X242700Y153500D02*
D03*
Y148500D02*
D03*
X246300Y151750D02*
D03*
Y156750D02*
D03*
X231100Y138700D02*
D03*
Y143700D02*
D03*
X237600Y141650D02*
D03*
X232600D02*
D03*
X238550D02*
D03*
X243550D02*
D03*
X237250Y136600D02*
D03*
X242250D02*
D03*
X232550Y131750D02*
D03*
X237550D02*
D03*
X235157Y137628D02*
D03*
X230157D02*
D03*
X235197Y136093D02*
D03*
X230197D02*
D03*
X230900Y129900D02*
D03*
Y134900D02*
D03*
X265850Y099700D02*
D03*
Y104700D02*
D03*
X258500Y099400D02*
D03*
Y104400D02*
D03*
X270079Y107200D02*
D03*
X265079D02*
D03*
X265796Y113589D02*
D03*
X260796D02*
D03*
X261000Y125410D02*
D03*
X256000D02*
D03*
X259321Y129085D02*
D03*
X254321D02*
D03*
X271004Y129203D02*
D03*
X266004D02*
D03*
X268071Y130561D02*
D03*
X263071D02*
D03*
X254400Y136050D02*
D03*
Y131050D02*
D03*
X266548Y115825D02*
D03*
Y120825D02*
D03*
X247250Y138100D02*
D03*
X242250D02*
D03*
X247250Y135100D02*
D03*
X252250D02*
D03*
X237800D02*
D03*
X242800D02*
D03*
X238450Y131750D02*
D03*
X243450D02*
D03*
X261043Y153268D02*
D03*
X256043D02*
D03*
X265079Y108350D02*
D03*
X260079D02*
D03*
X254150Y099450D02*
D03*
Y094450D02*
D03*
X270150Y099450D02*
D03*
Y094450D02*
D03*
D75*
X228050Y129750D02*
D03*
Y138648D02*
D03*
X234550Y155250D02*
D03*
X225652D02*
D03*
D76*
X254291Y126880D02*
D03*
Y127880D02*
D03*
X266014Y126900D02*
D03*
Y127900D02*
D03*
X263061Y127890D02*
D03*
Y126890D02*
D03*
X257309Y127859D02*
D03*
Y126859D02*
D03*
X259915Y155325D02*
D03*
X260915D02*
D03*
X256689Y094469D02*
D03*
Y095469D02*
D03*
X267589D02*
D03*
Y094469D02*
D03*
D77*
X268861Y140082D02*
D03*
X271004Y122772D02*
D03*
Y123772D02*
D03*
Y124772D02*
D03*
X269939Y147226D02*
D03*
Y146242D02*
D03*
X269152D02*
D03*
Y147226D02*
D03*
X227763Y146558D02*
D03*
Y147542D02*
D03*
X228550D02*
D03*
Y146558D02*
D03*
X262642Y096513D02*
D03*
X261658D02*
D03*
Y097300D02*
D03*
X262642D02*
D03*
X268862Y137874D02*
D03*
Y138976D02*
D03*
D78*
X269861Y140082D02*
D03*
X269862Y137874D02*
D03*
Y138976D02*
D03*
D79*
X237400Y147250D02*
D03*
X233400D02*
D03*
D80*
X252625Y137190D02*
D03*
X251050D02*
D03*
X239650Y155300D02*
D03*
X240650D02*
D03*
X232600Y138700D02*
D03*
Y139700D02*
D03*
X232550Y132900D02*
D03*
Y133900D02*
D03*
D81*
X239800Y139984D02*
D03*
Y139000D02*
D03*
Y138016D02*
D03*
X244750Y136084D02*
D03*
Y135100D02*
D03*
Y134116D02*
D03*
X245300Y153416D02*
D03*
Y154400D02*
D03*
Y155384D02*
D03*
D82*
X234150Y140193D02*
D03*
Y139291D02*
D03*
X236000Y138386D02*
D03*
Y139288D02*
D03*
Y133447D02*
D03*
Y134348D02*
D03*
X234150Y135253D02*
D03*
Y134352D02*
D03*
D83*
Y138389D02*
D03*
X236000Y140189D02*
D03*
Y135250D02*
D03*
X234150Y133450D02*
D03*
D84*
X241650Y155300D02*
D03*
D85*
X232600Y140700D02*
D03*
X232550Y134900D02*
D03*
D86*
X236600Y157450D02*
D03*
Y153450D02*
D03*
D87*
X241211Y123258D02*
D03*
D88*
X271004Y121772D02*
D03*
D89*
X247185Y126064D02*
D03*
X239508D02*
D03*
X231831D02*
D03*
X239508Y097521D02*
D03*
X247185D02*
D03*
X231831D02*
D03*
D90*
X271002Y149096D02*
D03*
Y144372D02*
D03*
X226700Y144688D02*
D03*
Y149412D02*
D03*
X264512Y095450D02*
D03*
X259788D02*
D03*
D91*
X237185Y133396D02*
D03*
X254006Y150906D02*
D03*
X238190Y127180D02*
D03*
X243260Y122460D02*
D03*
X249275Y133845D02*
D03*
X237040Y112350D02*
D03*
Y119240D02*
D03*
X236410Y115140D02*
D03*
X236420Y119230D02*
D03*
X230120Y120130D02*
D03*
X230130Y121040D02*
D03*
X229360Y115020D02*
D03*
X233190Y109150D02*
D03*
X234740Y113400D02*
D03*
X234420Y111460D02*
D03*
X234870Y116330D02*
D03*
X229930Y109000D02*
D03*
X231968Y108430D02*
D03*
X231970Y117490D02*
D03*
X231967Y122047D02*
D03*
X258760Y133320D02*
D03*
X260980Y131640D02*
D03*
X260971Y132760D02*
D03*
X261570Y133970D02*
D03*
X264650Y132190D02*
D03*
X259420Y106700D02*
D03*
X260130Y119780D02*
D03*
X261671Y121449D02*
D03*
X264710Y116710D02*
D03*
X264726Y118099D02*
D03*
X262942Y120660D02*
D03*
X255600Y132250D02*
D03*
X267400Y151450D02*
D03*
X262900Y150600D02*
D03*
X267400Y152600D02*
D03*
X262250Y152150D02*
D03*
X235300Y131750D02*
D03*
X260400Y098450D02*
D03*
X263031Y100394D02*
D03*
X262047Y103583D02*
D03*
X264074Y106550D02*
D03*
X261811Y107087D02*
D03*
X260944Y107519D02*
D03*
X259975Y104880D02*
D03*
X264291Y102244D02*
D03*
X264528Y105709D02*
D03*
X262936Y117320D02*
D03*
X261843Y117122D02*
D03*
X231634Y123976D02*
D03*
X231832Y119553D02*
D03*
X256673Y113061D02*
D03*
X258986Y127943D02*
D03*
X243996Y119852D02*
D03*
X243593Y116181D02*
D03*
X254606Y116289D02*
D03*
X254626Y120945D02*
D03*
X238968Y121856D02*
D03*
X244587Y115384D02*
D03*
X250669Y115394D02*
D03*
X258100Y112057D02*
D03*
X263888Y112047D02*
D03*
X257313Y119626D02*
D03*
X256457Y119823D02*
D03*
X263061Y123356D02*
D03*
X260738D02*
D03*
X258120Y122343D02*
D03*
X258130Y117992D02*
D03*
X257717Y120089D02*
D03*
X257717Y121555D02*
D03*
X260738Y122736D02*
D03*
X265197Y122717D02*
D03*
X265305Y123888D02*
D03*
X261181Y123878D02*
D03*
X258602Y120020D02*
D03*
X258543Y123819D02*
D03*
X260797Y115069D02*
D03*
X256142Y114026D02*
D03*
X240984Y120335D02*
D03*
X250876Y117657D02*
D03*
X262372Y106417D02*
D03*
X260915Y133730D02*
D03*
X261870Y117953D02*
D03*
X264124Y115187D02*
D03*
X263458Y106669D02*
D03*
X261263Y104523D02*
D03*
X263287Y120049D02*
D03*
X263927Y116831D02*
D03*
X263396Y114970D02*
D03*
X231949Y112933D02*
D03*
X246604Y118780D02*
D03*
X237717Y122470D02*
D03*
X231978Y127412D02*
D03*
X227618Y125148D02*
D03*
D92*
X251837Y144749D02*
D03*
M02*
