G04 Layer_Physical_Order=2*
G04 Layer_Color=16711680*
%FSAX24Y24*%
%MOIN*%
G70*
G01*
G75*
%ADD10R,0.0591X0.0512*%
%ADD12R,0.0394X0.0512*%
%ADD13R,0.0512X0.0394*%
%ADD14R,0.0630X0.0630*%
%ADD22C,0.0200*%
%ADD23C,0.0120*%
%ADD24C,0.0394*%
%ADD25C,0.0100*%
%ADD26C,0.0250*%
%ADD27C,0.0500*%
%ADD28C,0.1000*%
%ADD29C,0.1378*%
%ADD30C,0.0748*%
%ADD31C,0.1378*%
%ADD32C,0.0551*%
%ADD33C,0.0591*%
%ADD34R,0.0591X0.0591*%
%ADD35C,0.1600*%
%ADD36C,0.0866*%
%ADD37O,0.0866X0.0591*%
%ADD38C,0.0787*%
%ADD39R,0.0787X0.0787*%
%ADD40R,0.0866X0.0866*%
%ADD41R,0.0866X0.0866*%
%ADD42C,0.0800*%
%ADD43C,0.0600*%
%ADD44R,0.0591X0.0591*%
%ADD45C,0.1181*%
%ADD46C,0.1575*%
%ADD47C,0.0500*%
%ADD48C,0.3543*%
%ADD49R,0.0709X0.0087*%
%ADD50O,0.0087X0.0709*%
%ADD51R,0.0087X0.0709*%
%ADD52R,0.2165X0.0787*%
%ADD53R,0.0945X0.0236*%
%ADD54O,0.0945X0.0236*%
%ADD55O,0.0689X0.0256*%
%ADD56R,0.0689X0.0256*%
%ADD57R,0.0512X0.0591*%
%ADD58R,0.0236X0.0433*%
%ADD59R,0.0630X0.0630*%
%ADD60R,0.0400X0.0650*%
D10*
X234170Y109626D02*
D03*
Y110374D02*
D03*
X229890Y118006D02*
D03*
Y118754D02*
D03*
X234330Y118816D02*
D03*
Y119564D02*
D03*
X234150Y123356D02*
D03*
Y124104D02*
D03*
X229770Y122616D02*
D03*
Y123364D02*
D03*
X262350Y095124D02*
D03*
Y094376D02*
D03*
X261200D02*
D03*
Y095124D02*
D03*
X229950Y113446D02*
D03*
Y114194D02*
D03*
X260750Y104724D02*
D03*
Y103976D02*
D03*
D12*
X246624Y118090D02*
D03*
X245836D02*
D03*
X244944D02*
D03*
X244156D02*
D03*
X247406D02*
D03*
X248194D02*
D03*
X250874Y117230D02*
D03*
X250086D02*
D03*
X248966Y118100D02*
D03*
X249754D02*
D03*
X239534Y124520D02*
D03*
X238746D02*
D03*
X241164D02*
D03*
X240376D02*
D03*
X238796Y121250D02*
D03*
X239584D02*
D03*
X241244D02*
D03*
X240456D02*
D03*
X240384Y120330D02*
D03*
X239596D02*
D03*
X239784Y115920D02*
D03*
X238996D02*
D03*
X232404Y106550D02*
D03*
X231616D02*
D03*
X233246D02*
D03*
X234034D02*
D03*
X232456Y107470D02*
D03*
X233244D02*
D03*
X231644Y110530D02*
D03*
X230856D02*
D03*
X233244D02*
D03*
X232456D02*
D03*
X232466Y111460D02*
D03*
X233254D02*
D03*
X233264Y112350D02*
D03*
X232476D02*
D03*
X234100D02*
D03*
X234700D02*
D03*
X230836Y115100D02*
D03*
X231624D02*
D03*
X233254D02*
D03*
X232466D02*
D03*
X234690Y115110D02*
D03*
X234090D02*
D03*
X232456Y117020D02*
D03*
X233244D02*
D03*
X234944D02*
D03*
X234156D02*
D03*
X233176Y117910D02*
D03*
X233964D02*
D03*
X232456Y120590D02*
D03*
X233244D02*
D03*
X233194Y121520D02*
D03*
X232406D02*
D03*
X233990Y121510D02*
D03*
X234590D02*
D03*
X233954Y122410D02*
D03*
X233166D02*
D03*
X235410Y122400D02*
D03*
X234810D02*
D03*
X260791Y115575D02*
D03*
X260004D02*
D03*
X239784Y116820D02*
D03*
X238996D02*
D03*
X263391Y115445D02*
D03*
X262604D02*
D03*
X226131Y146557D02*
D03*
X226918D02*
D03*
X271654Y147332D02*
D03*
X270867D02*
D03*
D13*
X266540Y117734D02*
D03*
Y116946D02*
D03*
X245433Y116201D02*
D03*
Y115413D02*
D03*
X247333Y115119D02*
D03*
Y114331D02*
D03*
X248283Y115119D02*
D03*
Y114331D02*
D03*
X249921Y116240D02*
D03*
Y115453D02*
D03*
X240689Y117214D02*
D03*
Y116426D02*
D03*
X230820Y109614D02*
D03*
Y108826D02*
D03*
X234030Y105720D02*
D03*
Y105120D02*
D03*
X229930Y109756D02*
D03*
Y110544D02*
D03*
X228970Y110546D02*
D03*
Y111334D02*
D03*
Y112170D02*
D03*
Y112770D02*
D03*
X230890Y114214D02*
D03*
Y113426D02*
D03*
X233490D02*
D03*
Y114214D02*
D03*
X233300Y119584D02*
D03*
Y118796D02*
D03*
X233170Y124174D02*
D03*
Y123386D02*
D03*
X235130Y124104D02*
D03*
Y123316D02*
D03*
X236950Y133606D02*
D03*
Y134394D02*
D03*
X233400Y138456D02*
D03*
Y139244D02*
D03*
X230700Y123354D02*
D03*
Y122566D02*
D03*
X230840Y118784D02*
D03*
Y117996D02*
D03*
D14*
X264838Y118774D02*
D03*
Y117436D02*
D03*
D22*
X254000Y150911D02*
Y154400D01*
X261570Y133970D02*
X262870D01*
X264650Y132190D01*
X267400Y151450D02*
Y152600D01*
X262250Y151250D02*
Y152150D01*
Y151250D02*
X262900Y150600D01*
X259788Y095450D02*
X260050D01*
X259788D02*
X260000D01*
X261074Y094376D01*
X261200D01*
X262350D01*
X263439D01*
X264512Y095450D01*
X261200Y095124D02*
X262350D01*
X263386Y096160D01*
Y100039D01*
X263031Y100394D02*
X263386Y100039D01*
X263031Y100394D02*
X263375Y100737D01*
Y104400D01*
X262943D02*
X263375D01*
X262165Y103622D02*
X262943Y104400D01*
X263375D02*
Y104971D01*
X262926Y105420D02*
X263375Y104971D01*
X262139Y105420D02*
X262926D01*
X260944Y106615D02*
X262139Y105420D01*
X260944Y106615D02*
Y107519D01*
X262250Y152150D02*
Y154787D01*
X261713Y155325D02*
X262250Y154787D01*
X260915Y155325D02*
X261713D01*
X263071Y127900D02*
Y130561D01*
X263061Y127890D02*
X263071Y127900D01*
X265796Y113589D02*
X265861Y113524D01*
X252250Y134630D02*
Y135100D01*
Y134630D02*
X254630Y132250D01*
X255600D01*
X262926Y105420D02*
Y107194D01*
D23*
X269989Y099450D02*
X270150D01*
X267197Y102242D02*
X269989Y099450D01*
X267197Y102242D02*
Y102244D01*
X264291D02*
X267197D01*
X228950Y124432D02*
X231973Y127456D01*
X228950Y112790D02*
Y124432D01*
X239136Y124980D02*
X240670D01*
X241140Y125450D01*
Y125910D01*
X241160Y125430D02*
X241750Y124840D01*
X235300Y131750D02*
X241140Y125910D01*
X238746Y124596D02*
X239133Y124983D01*
X238746Y124520D02*
Y124596D01*
X234020Y105110D02*
X234030Y105120D01*
X234020Y099710D02*
Y105110D01*
X231831Y097521D02*
X234020Y099710D01*
X234700Y112350D02*
X237040D01*
Y119240D02*
Y125510D01*
X229160Y133390D02*
Y143010D01*
X233400Y147250D01*
X228897Y138115D02*
X228900Y138112D01*
Y133280D02*
Y138112D01*
Y133280D02*
X234163Y128017D01*
X236340Y148310D02*
X237400Y147250D01*
X232730Y148310D02*
X236340D01*
X228897Y144477D02*
X232730Y148310D01*
X228897Y138115D02*
Y144477D01*
X234163Y128007D02*
X236430Y125741D01*
Y119240D02*
Y125741D01*
X230422Y131440D02*
X236210Y125652D01*
Y122240D02*
Y125652D01*
X235490Y121520D02*
X236210Y122240D01*
X236420Y119230D02*
X236430Y119240D01*
X234690Y115110D02*
X234720Y115140D01*
X236410D01*
X234163Y128007D02*
Y128017D01*
X230853Y130700D02*
X235940Y125613D01*
X227670Y131440D02*
X230422D01*
X235940Y122930D02*
Y125613D01*
X227390Y130700D02*
X230853D01*
X225330Y132760D02*
X227390Y130700D01*
X225330Y132760D02*
Y151690D01*
X226570Y132540D02*
X227670Y131440D01*
X230120Y120120D02*
Y120130D01*
Y120120D02*
X231907D01*
X229722Y120828D02*
X229960Y120590D01*
X229722Y120828D02*
Y122568D01*
X229770Y122616D01*
X230130Y121040D02*
X230216D01*
X230580Y121404D01*
X229960Y120590D02*
X232456D01*
X231907Y120120D02*
X232444Y119584D01*
X229360Y116390D02*
X229960Y116990D01*
X229360Y115070D02*
Y116390D01*
X234580Y121520D02*
X235490D01*
X225330Y151690D02*
X228890Y155250D01*
X235410Y122400D02*
X235940Y122930D01*
X228890Y155250D02*
X234550D01*
X230890Y113426D02*
X230966D01*
X231200Y113660D01*
X231879D01*
X231993Y113546D01*
Y113510D02*
Y113546D01*
Y113510D02*
X232238Y113264D01*
X232464D01*
X241750Y123090D02*
Y124840D01*
X240880Y122220D02*
X241750Y123090D01*
X240395Y122220D02*
X240880D01*
X241244Y121856D01*
Y121250D02*
Y121856D01*
X234150Y124104D02*
X235244D01*
X241244Y120624D02*
Y121250D01*
X240384Y120330D02*
X240950D01*
X239534Y124520D02*
X240376D01*
X229360Y115070D02*
X230806D01*
X229360Y115020D02*
Y115070D01*
X229960Y116990D02*
X230496D01*
X232249Y117851D02*
X232464D01*
X231993Y118107D02*
X232249Y117851D01*
X231993Y118107D02*
Y118133D01*
X231900Y118226D02*
X231993Y118133D01*
X231439Y118226D02*
X231900D01*
X231210Y117996D02*
X231439Y118226D01*
X230840Y117996D02*
X231210D01*
X229900D02*
X230840D01*
X229920Y118784D02*
X230840D01*
X233944Y108430D02*
X234720Y109206D01*
X233251Y109150D02*
X233944Y108457D01*
X233190Y109150D02*
X233251D01*
X232370Y106504D02*
X232404D01*
X232450Y106550D01*
X233246D01*
X229930Y109000D02*
Y109756D01*
Y107420D02*
Y109000D01*
Y107420D02*
X230800Y106550D01*
X231616D01*
X230820Y108550D02*
Y108826D01*
Y108550D02*
X231554Y107816D01*
Y107780D02*
Y107816D01*
Y107780D02*
X231864Y107470D01*
X232456D01*
X230820Y108826D02*
X231044Y109050D01*
X231530D01*
X231532Y109053D01*
X229360Y115020D02*
X229384Y114996D01*
Y112896D02*
Y114996D01*
Y112896D02*
X229810Y112470D01*
X230556D01*
X229970Y114214D02*
X230890D01*
X229950Y114194D02*
X229970Y114214D01*
X229950Y113446D02*
X229970Y113426D01*
X230890D01*
X230806Y115070D02*
X230836Y115100D01*
X228950Y112790D02*
X228970Y112770D01*
X234720Y109206D02*
Y109851D01*
X234197Y110374D02*
X234720Y109851D01*
X234170Y110374D02*
X234197D01*
X233244Y110530D02*
X233400Y110374D01*
X234170D01*
X232464Y109622D02*
X232468Y109626D01*
X234170D01*
X234700Y112350D02*
X234740Y112390D01*
X233490Y113426D02*
X233516Y113400D01*
X234740D01*
X234721Y113419D02*
X234740Y113400D01*
X234721Y113419D02*
Y113680D01*
X235154Y114113D01*
Y114140D01*
X234332Y114214D02*
X234406Y114140D01*
X233490Y114214D02*
X234332D01*
X230616Y121440D02*
Y121467D01*
X231240Y122091D01*
Y122580D01*
X231472Y122813D01*
X231893D01*
X232030Y122950D01*
X229770Y122616D02*
X229820Y122566D01*
X230700D01*
X229770Y123364D02*
X229780Y123354D01*
X230700D01*
X230720Y123394D02*
X231645D01*
X230836Y115100D02*
Y115466D01*
X231670Y116300D01*
X234800D01*
X234944Y116444D02*
Y117020D01*
X233170Y124174D02*
Y127630D01*
X234080Y124174D02*
X234150Y124104D01*
X233170Y124174D02*
X234080D01*
X232524D02*
X233170D01*
X232030Y123680D02*
X232524Y124174D01*
X232030Y123382D02*
Y123680D01*
Y122950D02*
Y123382D01*
X234580Y121520D02*
X234590Y121510D01*
X233300Y119584D02*
Y120534D01*
X234310Y119584D02*
X234330Y119564D01*
X233300Y119584D02*
X234310D01*
X232444D02*
X233300D01*
X232090Y119230D02*
X232444Y119584D01*
X232090Y118796D02*
Y119230D01*
Y118530D02*
Y118796D01*
Y118530D02*
X232310Y118310D01*
X232899D01*
X232914Y118324D01*
X233549D01*
X233964Y117910D01*
X234580D01*
X234944Y117546D01*
Y117020D02*
Y117546D01*
X232090Y113840D02*
Y114209D01*
Y113840D02*
X232110Y113820D01*
X232590D01*
X232984Y113426D01*
X233490D01*
X233254Y111460D02*
X234420D01*
X232090Y109290D02*
Y109622D01*
X232464Y117028D02*
Y117851D01*
X232456Y117020D02*
X232464Y117028D01*
X230829Y109622D02*
X231288Y110082D01*
X230820Y109614D02*
X230829Y109622D01*
X231381Y110944D02*
X239016D01*
X231288Y110082D02*
Y110852D01*
X231381Y110944D01*
X240395Y122720D02*
X240800D01*
X239850Y123220D02*
X240395D01*
X239584Y122954D02*
X239850Y123220D01*
X239584Y121250D02*
X240456D01*
X238796Y121130D02*
Y121250D01*
Y121130D02*
X239596Y120330D01*
X234330Y118816D02*
X238082D01*
X239596Y120330D01*
X239784Y115920D02*
Y116820D01*
X238996Y115920D02*
Y116820D01*
X231678Y115920D02*
X238996D01*
X247333Y115119D02*
X248283D01*
X230340Y109134D02*
X230820Y109614D01*
X230340Y108260D02*
Y109134D01*
Y108260D02*
X230806Y107794D01*
X228970Y111334D02*
Y112170D01*
X228973Y110544D02*
X229930D01*
X234030Y105720D02*
X234034Y105724D01*
Y106550D01*
X233244Y106813D02*
X233246Y106810D01*
X233244Y106813D02*
Y107780D01*
X230829Y109622D02*
X231716D01*
X229944Y110530D02*
X230856D01*
X232464Y109622D02*
Y110522D01*
X231644Y110530D02*
X232456D01*
X232464Y114209D02*
X233485D01*
X231626Y115098D02*
X232464D01*
Y114209D02*
Y115098D01*
X232476Y111470D02*
Y112350D01*
X230890Y114214D02*
X231711D01*
X231716Y114209D01*
X234153Y117020D02*
X234156Y117024D01*
X233244Y117020D02*
X234153D01*
X233264Y115110D02*
X234090D01*
X233264Y112350D02*
X234100D01*
X232464Y112362D02*
Y113264D01*
Y112362D02*
X232476Y112350D01*
X232523Y117910D02*
X233176D01*
X232464Y117851D02*
X232523Y117910D01*
X230840Y118784D02*
X231704D01*
X232465Y118796D02*
X233300D01*
X233320Y118816D02*
X234330D01*
X232406Y120640D02*
Y121520D01*
X233954Y122410D02*
X234800D01*
X233194Y121520D02*
X233980D01*
X232406D02*
Y122435D01*
X234150Y123356D02*
X235090D01*
X233170Y123386D02*
X234120D01*
X232404Y123382D02*
X232408Y123386D01*
X233170D01*
Y122414D02*
Y123386D01*
X259409Y105472D02*
Y106700D01*
X239800Y139000D02*
X240750D01*
X241650Y138100D01*
X242250D01*
X261492Y098450D02*
X262642Y097300D01*
X260400Y098450D02*
X261492D01*
X260750Y103976D02*
X261104Y103622D01*
X262165D01*
X267102Y107200D02*
X267106Y107205D01*
X263479Y106510D02*
Y107384D01*
X263480Y107386D01*
X264074Y106515D02*
Y106550D01*
X264088Y106564D01*
Y107555D01*
X263996Y107647D02*
X264088Y107555D01*
X262604Y107647D02*
X263996D01*
X262044Y107087D02*
X262604Y107647D01*
X261811Y107087D02*
X262044D01*
X254150Y099450D02*
X255356D01*
X260552Y104646D01*
X260672D01*
X260730Y104704D01*
X267854Y107178D02*
Y107205D01*
X266110Y105433D02*
X267854Y107178D01*
X259975Y104880D02*
Y104907D01*
X259409Y105472D02*
X259975Y104907D01*
X263375Y104400D02*
X263888D01*
X264921Y105433D01*
X266110D01*
X264528Y105709D02*
Y112165D01*
X265079Y107200D02*
X267102D01*
X265079D02*
Y108271D01*
X265000Y108350D02*
X265079Y108271D01*
X269995Y107205D02*
X270000Y107200D01*
X267854Y107205D02*
X269995D01*
X260079Y105354D02*
Y108271D01*
X231656Y123382D02*
Y123954D01*
X231634Y123976D02*
X231656Y123954D01*
X239016Y110944D02*
X242373Y114301D01*
X252097D01*
X247774Y116750D02*
X248794D01*
X247333Y115119D02*
X247461Y115246D01*
Y116437D01*
X247774Y116750D01*
X249624Y115750D02*
X249921Y115453D01*
X248794Y115750D02*
X249624D01*
X246211Y116250D02*
X246826D01*
X245641Y116820D02*
X246211Y116250D01*
X239784Y116820D02*
X245641D01*
X240689Y116053D02*
Y116426D01*
X239784Y115920D02*
X240556D01*
X240689Y116053D01*
X241535Y119144D02*
Y119745D01*
X232090Y109290D02*
X232200Y109180D01*
X233190D01*
X232298Y108678D02*
X232464D01*
X231923Y109053D02*
X232298Y108678D01*
X231532Y109053D02*
X231923D01*
X239468Y123720D02*
X240395D01*
X240394Y123721D02*
Y124580D01*
X239584Y121250D02*
Y122954D01*
X238967Y123218D02*
X239468Y123720D01*
X238967Y123218D02*
X238968Y123217D01*
Y121856D02*
Y123217D01*
X244587Y115384D02*
X245404D01*
X245433Y115413D01*
X249980Y115394D02*
X250669D01*
X249921Y115453D02*
X249980Y115394D01*
X258100Y112057D02*
X263878D01*
X263888Y112047D01*
X252250Y135100D02*
X254677D01*
X257047Y137470D01*
X260128D01*
X245300Y155384D02*
X247619D01*
X248839Y156604D01*
X226570Y132540D02*
Y138647D01*
X227763Y139839D01*
Y146558D01*
X271654Y147332D02*
Y148444D01*
X271002Y149096D02*
X271654Y148444D01*
X271614Y144984D02*
Y146368D01*
X271002Y144372D02*
X271614Y144984D01*
X271654Y146408D02*
Y147332D01*
X271614Y146368D02*
X271654Y146408D01*
X263391Y115445D02*
X263396Y115441D01*
X252097Y114301D02*
X252233Y114437D01*
X256152Y113975D02*
X256161Y113965D01*
X256143Y113967D02*
X256152Y113975D01*
X256142Y113967D02*
X256143D01*
X261209Y114437D02*
X261270Y114498D01*
X252233Y114437D02*
X261209D01*
X240969Y120349D02*
X241244Y120624D01*
X240965Y120315D02*
X241535Y119745D01*
X261903Y106417D02*
X262372D01*
X261403Y106917D02*
X261903Y106417D01*
X261403Y106917D02*
Y108105D01*
X261158Y108350D02*
X261403Y108105D01*
X260079Y108350D02*
X261158D01*
X260000D02*
X260079Y108271D01*
X226898Y146577D02*
Y147557D01*
Y146577D02*
X226917Y146558D01*
X227763D01*
X226700Y144688D02*
Y144934D01*
X226131Y145503D02*
X226700Y144934D01*
X226131Y148843D02*
X226700Y149412D01*
X226131Y145503D02*
Y146557D01*
Y148843D01*
X240800Y122720D02*
X241211Y123131D01*
Y124473D01*
X241164Y124520D02*
X241211Y124473D01*
X263414Y106575D02*
X263479Y106510D01*
X263414Y106575D02*
X263445Y106605D01*
X263458Y106618D01*
Y106669D01*
X260910Y104523D02*
X261263D01*
X260730Y104704D02*
Y104704D01*
X260910Y104523D01*
X260079Y105354D02*
X260730Y104704D01*
X261263Y104523D02*
X262002D01*
X262125Y104400D01*
X263396Y114970D02*
Y115441D01*
X230900Y129900D02*
X233170Y127630D01*
X230890Y114214D02*
X231230Y114554D01*
Y115472D01*
X231678Y115920D01*
X229160Y133390D02*
X237040Y125510D01*
D24*
X236954Y133396D02*
X237185D01*
X236950Y133400D02*
X236954Y133396D01*
X235300Y131750D02*
X236950Y133400D01*
X245009Y153416D02*
X245300D01*
X244225Y154200D02*
X245009Y153416D01*
X241092Y154200D02*
X244225D01*
X232850Y138700D02*
X233094Y138456D01*
X232600Y138700D02*
X232850D01*
X236045Y134394D02*
X236950D01*
X241058Y154234D02*
X241092Y154200D01*
X237384Y154234D02*
X241058D01*
X236600Y153450D02*
X237384Y154234D01*
X244750Y135100D02*
X247250D01*
X236000Y134348D02*
X236045Y134394D01*
X233458Y139252D02*
X234150D01*
X236050Y141650D02*
X237600D01*
X235050Y140650D02*
X236050Y141650D01*
X234427Y139427D02*
X235050Y140050D01*
Y140650D01*
X239266Y139984D02*
X239800D01*
X237600Y141650D02*
X239266Y139984D01*
X238634Y138016D02*
X239800D01*
X236500Y140150D02*
X238634Y138016D01*
D25*
X263113Y116933D02*
X263735Y116310D01*
X263113Y116933D02*
X263113D01*
X263101Y116921D02*
X263113Y116933D01*
X262771Y116921D02*
X263101D01*
X262665Y117028D02*
X262771Y116921D01*
X261938Y117028D02*
X262665D01*
X261843Y117122D02*
X261938Y117028D01*
X231744Y117490D02*
X231970D01*
X231244Y116990D02*
X231744Y117490D01*
X233079Y108313D02*
X233196Y108430D01*
X232065Y108313D02*
X233079D01*
X231464Y121620D02*
X231540D01*
X231967Y122047D01*
X231968Y108430D02*
X232013Y108380D01*
X232020Y108374D01*
X231716Y113184D02*
Y113264D01*
X231656Y122358D02*
Y122438D01*
Y122358D02*
X231967Y122047D01*
X263738Y119268D02*
X264148D01*
X264470Y119590D01*
Y130230D01*
X260980Y131640D02*
X261040D01*
X260870Y132760D02*
X261030D01*
X263306Y115575D02*
X263391D01*
X263051Y116110D02*
Y116414D01*
Y116110D02*
X263141Y116021D01*
X261469Y119954D02*
X261473Y119957D01*
X261469Y119542D02*
Y119954D01*
X261337Y119410D02*
X261469Y119542D01*
X260660Y119410D02*
X261337D01*
X260290Y119780D02*
X260660Y119410D01*
X260130Y119780D02*
X260290D01*
X261671Y119957D02*
Y121449D01*
X266540Y116946D02*
X267756D01*
X270085Y119275D01*
X270768D01*
X265219Y118099D02*
X265585Y117734D01*
X266540D01*
X266395Y119275D02*
X267028D01*
X265219Y118099D02*
X266395Y119275D01*
X264726Y118099D02*
X265219D01*
X262604Y115445D02*
X262654Y115495D01*
X262852Y116028D02*
Y116414D01*
X262852D02*
X262852D01*
Y116028D02*
X263306Y115575D01*
X262654Y115495D02*
Y116331D01*
X262455Y119870D02*
X262650D01*
X261750Y117890D02*
Y118838D01*
X262453Y119542D01*
X260884Y116414D02*
Y117314D01*
X261460Y117890D01*
X261750D01*
X262847Y116419D02*
X262852Y116414D01*
X262453Y119868D02*
X262455Y119870D01*
X262453Y119542D02*
Y119868D01*
X264710Y116710D02*
Y117308D01*
X264838Y117436D01*
X264661Y118099D02*
X264726D01*
X264256Y117694D02*
X264661Y118099D01*
X263738Y117694D02*
X264256D01*
X264151Y118087D02*
X264838Y118774D01*
X263738Y118087D02*
X264151D01*
X262262Y120908D02*
X262278Y120925D01*
X262262Y119957D02*
Y120908D01*
X262852Y120570D02*
X262942Y120660D01*
X262852Y119957D02*
Y120570D01*
X260791Y115575D02*
X261079Y115862D01*
Y116329D01*
X238976Y115900D02*
X238996Y115920D01*
X238976Y114931D02*
Y115900D01*
X263044Y117300D02*
X263738D01*
X261755Y117310D02*
X261843Y117221D01*
Y117122D02*
X262440Y117718D01*
X263101D01*
X263317Y117502D01*
X263649D01*
X263653Y117498D01*
X265904Y116310D02*
X266540Y116946D01*
X263735Y116310D02*
X265904D01*
X231716Y118796D02*
X231722Y118802D01*
Y119443D01*
X231832Y119553D01*
X261873Y113926D02*
Y116338D01*
X261873Y116339D01*
X256161Y113965D02*
X256184D01*
X261007Y113061D02*
X261873Y113926D01*
X256673Y113061D02*
X261007D01*
X246624Y118090D02*
X247406D01*
X246742Y117334D02*
X246826Y117250D01*
X246742Y117334D02*
Y117972D01*
X246624Y118090D02*
X246742Y117972D01*
X244944Y118090D02*
X245836D01*
Y117195D02*
Y118090D01*
Y117195D02*
X246282Y116750D01*
X246826D01*
X248194Y118090D02*
X248956D01*
X248194Y117308D02*
Y118090D01*
Y117308D02*
X248252Y117250D01*
X248794D01*
X249779Y117230D02*
X250086D01*
X249299Y116750D02*
X249779Y117230D01*
X248794Y116750D02*
X249299D01*
X248804Y116240D02*
X249921D01*
X248794Y116250D02*
X248804Y116240D01*
X245884Y115750D02*
X246826D01*
X245433Y116201D02*
X245884Y115750D01*
X240689Y117214D02*
Y118297D01*
X241535Y119144D01*
X258986Y127943D02*
X260010Y128927D01*
X261075Y119962D02*
X261080Y119957D01*
X261075Y119962D02*
Y120431D01*
X243593Y116181D02*
X245413D01*
X245433Y116201D01*
X243996Y119852D02*
X244646Y120502D01*
X261004D02*
X261075Y120431D01*
X249921Y116240D02*
X249941Y116260D01*
X254577D02*
X254606Y116289D01*
X249941Y116260D02*
X254577D01*
X254626Y120848D02*
Y120945D01*
X254509Y120965D02*
X254626Y120848D01*
X260846Y120940D02*
Y120965D01*
Y120940D02*
X261274Y120513D01*
Y120045D02*
Y120513D01*
Y120045D02*
X261276Y120042D01*
X231716Y108678D02*
X231988Y108405D01*
X232013Y108380D01*
X231988Y108405D02*
X232065Y108313D01*
X231968Y108430D02*
X231988Y108405D01*
X258261Y118678D02*
X260195D01*
X257313Y119626D02*
X258261Y118678D01*
X263617Y120925D02*
X264006Y120536D01*
Y119813D02*
Y120536D01*
X263661Y119468D02*
X264006Y119813D01*
X262654Y119548D02*
X262747Y119455D01*
X263154D01*
X263164Y119464D01*
X262654Y119548D02*
Y119957D01*
X263159Y119468D02*
X263661D01*
X254509Y120965D02*
X260846D01*
X244646Y120502D02*
X261004D01*
X256457Y119823D02*
X257800Y118479D01*
X260195D01*
X263061Y123366D02*
Y126890D01*
X263051Y123356D02*
X263061D01*
X259154D02*
X260738D01*
X258140Y122343D02*
X259154Y123356D01*
X258120Y122343D02*
X258140D01*
X258130Y117992D02*
X258419Y118281D01*
X260195D01*
X263051Y123356D02*
X263061Y123366D01*
X258671Y119941D02*
Y119951D01*
X257717Y120089D02*
X258929Y118876D01*
X260195D01*
X258671Y119951D02*
X259547Y119075D01*
X260195D01*
X257717Y121555D02*
X258809D01*
X259970Y122717D01*
X260718D01*
X260738Y122736D01*
X265197Y122717D02*
X270949D01*
X271004Y122772D01*
X265305Y123888D02*
X270888D01*
X271004Y123772D01*
X261040Y131640D02*
X261671Y131009D01*
Y121449D02*
Y131009D01*
X258553Y123878D02*
X261181D01*
X258543Y123868D02*
X258553Y123878D01*
X258543Y123819D02*
Y123868D01*
X258524Y127943D02*
X258986D01*
X257972Y127392D02*
X258524Y127943D01*
X257972Y125285D02*
Y127392D01*
X256033Y123346D02*
X257972Y125285D01*
X260004Y115575D02*
X260408Y115979D01*
X260832D01*
X260880Y116028D01*
Y116414D02*
X260884D01*
X260880Y116028D02*
Y116414D01*
X262604Y114896D02*
Y115445D01*
Y114896D02*
X263051Y114449D01*
X263524D01*
X261437Y114114D02*
X261674Y114351D01*
Y116414D01*
X261476Y114704D02*
Y116414D01*
X260791Y115075D02*
Y115575D01*
Y115075D02*
X260797Y115069D01*
X261270Y114498D02*
X261476Y114704D01*
X256333Y114114D02*
X261437D01*
X256184Y113965D02*
X256333Y114114D01*
X258514Y115069D02*
X260797D01*
X255482Y118100D02*
X258514Y115069D01*
X249754Y118100D02*
X255482D01*
X249754Y118100D02*
X249754Y118100D01*
X244156Y118090D02*
X245377Y119311D01*
X248543D01*
X249754Y118100D01*
X260010Y128927D02*
Y131683D01*
X261030Y132703D01*
Y132760D01*
X260915Y133730D02*
X260970D01*
X264470Y130230D01*
X261906Y117916D02*
X263225D01*
X261870Y117953D02*
X261906Y117916D01*
X263649Y117896D02*
X263654Y117890D01*
X263246Y117896D02*
X263649D01*
X263225Y117916D02*
X263246Y117896D01*
X264124Y115049D02*
Y115187D01*
X263854Y116021D02*
X264528Y115347D01*
X263524Y114449D02*
X264124Y115049D01*
X263141Y116021D02*
X263854D01*
X264528Y112165D02*
Y115347D01*
X263196Y119957D02*
X263287Y120049D01*
X263050Y119957D02*
X263196D01*
X263182Y120089D02*
X263376D01*
X263312Y120025D02*
X263376Y120089D01*
X263856Y116831D02*
X263927D01*
Y116912D01*
X263738Y117101D02*
X263927Y116912D01*
X231767Y112933D02*
X231949D01*
X231304Y112470D02*
X231767Y112933D01*
X231716Y113184D02*
X232040Y112860D01*
X246604Y118780D02*
X246624Y118760D01*
Y118090D02*
Y118760D01*
X238976Y114931D02*
X239163Y114744D01*
X260559D01*
X260632Y114670D01*
X261117D01*
X261277Y114830D01*
Y116414D01*
D26*
X258760Y129620D02*
Y133320D01*
Y129620D02*
X259300Y129080D01*
X258760Y133320D02*
X259889Y134449D01*
X269640Y130630D02*
X271011Y129259D01*
X259889Y134449D02*
X265817D01*
X256043Y153268D02*
Y154291D01*
X257077Y155325D01*
X259915D01*
X265817Y134449D02*
X268071Y132195D01*
Y130561D02*
Y132195D01*
X268140Y130630D02*
X269640D01*
X268071Y130561D02*
X268140Y130630D01*
X271004Y124772D02*
Y129203D01*
X270867Y146369D02*
Y147332D01*
X270045D02*
X270867D01*
X269939Y147226D02*
X270045Y147332D01*
X268861Y137875D02*
X268862Y137874D01*
X269862D01*
Y138976D01*
X268861Y140082D02*
X269861D01*
X268861Y137875D02*
Y140082D01*
D27*
X258856Y149587D02*
X261193Y147250D01*
X247668Y149587D02*
X258856D01*
X245331Y147250D02*
X247668Y149587D01*
X261193Y147250D02*
X269124D01*
X237400D02*
X245331D01*
X231654Y136850D02*
X236073D01*
X231887Y133900D02*
X232550D01*
X231654Y134134D02*
X231887Y133900D01*
X231654Y134134D02*
Y137753D01*
X232600Y138700D01*
X236841Y137618D02*
Y138819D01*
X236073Y136850D02*
X236841Y137618D01*
X236000Y139288D02*
X236372D01*
X236841Y138819D01*
X243240Y122460D02*
Y127810D01*
Y122460D02*
X243260D01*
X243240Y127810D02*
X249275Y133845D01*
X236950Y134394D02*
Y135272D01*
X239028Y137350D01*
X245450D01*
X246750Y136050D01*
X254400D01*
X232381Y140481D02*
X232600Y140700D01*
X231819Y140481D02*
X232381D01*
X230150Y138813D02*
X231819Y140481D01*
X230150Y137550D02*
Y138813D01*
X238550Y141650D02*
X240950D01*
X242900Y139700D01*
X248540D01*
X251050Y137190D01*
X238310Y122470D02*
X238320Y122460D01*
X237717Y122470D02*
X238310D01*
X238190Y123327D02*
Y123720D01*
Y127180D01*
D28*
X227618Y125148D02*
X230811Y128340D01*
Y129811D01*
D29*
X248839Y156604D02*
D03*
X240650Y153250D02*
D03*
X256033Y123346D02*
D03*
X226368Y140256D02*
D03*
Y142451D02*
D03*
X243278Y145463D02*
D03*
X260128Y137470D02*
D03*
X243681Y139783D02*
D03*
X249459Y131752D02*
D03*
X260709Y147250D02*
D03*
X254000Y154400D02*
D03*
X251600Y130150D02*
D03*
X261703Y129419D02*
D03*
X264439Y125098D02*
D03*
D30*
X252400Y154400D02*
D03*
X247400D02*
D03*
X241500Y143500D02*
D03*
Y148500D02*
D03*
X242700Y153500D02*
D03*
Y148500D02*
D03*
X246300Y151750D02*
D03*
Y156750D02*
D03*
X231100Y138700D02*
D03*
Y143700D02*
D03*
X237600Y141650D02*
D03*
X232600D02*
D03*
X238550D02*
D03*
X243550D02*
D03*
X237250Y136600D02*
D03*
X242250D02*
D03*
X232550Y131750D02*
D03*
X237550D02*
D03*
X235157Y137628D02*
D03*
X230157D02*
D03*
X235197Y136093D02*
D03*
X230197D02*
D03*
X230900Y129900D02*
D03*
Y134900D02*
D03*
X265850Y099700D02*
D03*
Y104700D02*
D03*
X258500Y099400D02*
D03*
Y104400D02*
D03*
X270079Y107200D02*
D03*
X265079D02*
D03*
X265796Y113589D02*
D03*
X260796D02*
D03*
X261000Y125410D02*
D03*
X256000D02*
D03*
X259321Y129085D02*
D03*
X254321D02*
D03*
X271004Y129203D02*
D03*
X266004D02*
D03*
X268071Y130561D02*
D03*
X263071D02*
D03*
X254400Y136050D02*
D03*
Y131050D02*
D03*
X266548Y115825D02*
D03*
Y120825D02*
D03*
X247250Y138100D02*
D03*
X242250D02*
D03*
X247250Y135100D02*
D03*
X252250D02*
D03*
X237800D02*
D03*
X242800D02*
D03*
X238450Y131750D02*
D03*
X243450D02*
D03*
X261043Y153268D02*
D03*
X256043D02*
D03*
X265079Y108350D02*
D03*
X260079D02*
D03*
X254150Y099450D02*
D03*
Y094450D02*
D03*
X270150Y099450D02*
D03*
Y094450D02*
D03*
D31*
X228050Y129750D02*
D03*
Y138648D02*
D03*
X234550Y155250D02*
D03*
X225652D02*
D03*
D32*
X254291Y126880D02*
D03*
Y127880D02*
D03*
X266014Y126900D02*
D03*
Y127900D02*
D03*
X263061Y127890D02*
D03*
Y126890D02*
D03*
X257309Y127859D02*
D03*
Y126859D02*
D03*
X259915Y155325D02*
D03*
X260915D02*
D03*
X256689Y094469D02*
D03*
Y095469D02*
D03*
X267589D02*
D03*
Y094469D02*
D03*
D33*
X268861Y140082D02*
D03*
X271004Y122772D02*
D03*
Y123772D02*
D03*
Y124772D02*
D03*
X269939Y147226D02*
D03*
Y146242D02*
D03*
X269152D02*
D03*
Y147226D02*
D03*
X227763Y146558D02*
D03*
Y147542D02*
D03*
X228550D02*
D03*
Y146558D02*
D03*
X262642Y096513D02*
D03*
X261658D02*
D03*
Y097300D02*
D03*
X262642D02*
D03*
X268862Y137874D02*
D03*
Y138976D02*
D03*
D34*
X269861Y140082D02*
D03*
X269862Y137874D02*
D03*
Y138976D02*
D03*
D35*
X237400Y147250D02*
D03*
X233400D02*
D03*
D36*
X252625Y137190D02*
D03*
X251050D02*
D03*
X239650Y155300D02*
D03*
X240650D02*
D03*
X232600Y138700D02*
D03*
Y139700D02*
D03*
X232550Y132900D02*
D03*
Y133900D02*
D03*
D37*
X239800Y139984D02*
D03*
Y139000D02*
D03*
Y138016D02*
D03*
X244750Y136084D02*
D03*
Y135100D02*
D03*
Y134116D02*
D03*
X245300Y153416D02*
D03*
Y154400D02*
D03*
Y155384D02*
D03*
D38*
X234150Y140193D02*
D03*
Y139291D02*
D03*
X236000Y138386D02*
D03*
Y139288D02*
D03*
Y133447D02*
D03*
Y134348D02*
D03*
X234150Y135253D02*
D03*
Y134352D02*
D03*
D39*
Y138389D02*
D03*
X236000Y140189D02*
D03*
Y135250D02*
D03*
X234150Y133450D02*
D03*
D40*
X241650Y155300D02*
D03*
D41*
X232600Y140700D02*
D03*
X232550Y134900D02*
D03*
D42*
X236600Y157450D02*
D03*
Y153450D02*
D03*
D43*
X241211Y123258D02*
D03*
D44*
X271004Y121772D02*
D03*
D45*
X247185Y126064D02*
D03*
X239508D02*
D03*
X231831D02*
D03*
X239508Y097521D02*
D03*
X247185D02*
D03*
X231831D02*
D03*
D46*
X271002Y149096D02*
D03*
Y144372D02*
D03*
X226700Y144688D02*
D03*
Y149412D02*
D03*
X264512Y095450D02*
D03*
X259788D02*
D03*
D47*
X237185Y133396D02*
D03*
X254006Y150906D02*
D03*
X238190Y127180D02*
D03*
X243260Y122460D02*
D03*
X249275Y133845D02*
D03*
X237040Y112350D02*
D03*
Y119240D02*
D03*
X236410Y115140D02*
D03*
X236420Y119230D02*
D03*
X230120Y120130D02*
D03*
X230130Y121040D02*
D03*
X229360Y115020D02*
D03*
X233190Y109150D02*
D03*
X234740Y113400D02*
D03*
X234420Y111460D02*
D03*
X234870Y116330D02*
D03*
X229930Y109000D02*
D03*
X231968Y108430D02*
D03*
X231970Y117490D02*
D03*
X231967Y122047D02*
D03*
X258760Y133320D02*
D03*
X260980Y131640D02*
D03*
X260971Y132760D02*
D03*
X261570Y133970D02*
D03*
X264650Y132190D02*
D03*
X259420Y106700D02*
D03*
X260130Y119780D02*
D03*
X261671Y121449D02*
D03*
X264710Y116710D02*
D03*
X264726Y118099D02*
D03*
X262942Y120660D02*
D03*
X255600Y132250D02*
D03*
X267400Y151450D02*
D03*
X262900Y150600D02*
D03*
X267400Y152600D02*
D03*
X262250Y152150D02*
D03*
X235300Y131750D02*
D03*
X260400Y098450D02*
D03*
X263031Y100394D02*
D03*
X262047Y103583D02*
D03*
X264074Y106550D02*
D03*
X261811Y107087D02*
D03*
X260944Y107519D02*
D03*
X259975Y104880D02*
D03*
X264291Y102244D02*
D03*
X264528Y105709D02*
D03*
X262936Y117320D02*
D03*
X261843Y117122D02*
D03*
X231634Y123976D02*
D03*
X231832Y119553D02*
D03*
X256673Y113061D02*
D03*
X258986Y127943D02*
D03*
X243996Y119852D02*
D03*
X243593Y116181D02*
D03*
X254606Y116289D02*
D03*
X254626Y120945D02*
D03*
X238968Y121856D02*
D03*
X244587Y115384D02*
D03*
X250669Y115394D02*
D03*
X258100Y112057D02*
D03*
X263888Y112047D02*
D03*
X257313Y119626D02*
D03*
X256457Y119823D02*
D03*
X263061Y123356D02*
D03*
X260738D02*
D03*
X258120Y122343D02*
D03*
X258130Y117992D02*
D03*
X257717Y120089D02*
D03*
X257717Y121555D02*
D03*
X260738Y122736D02*
D03*
X265197Y122717D02*
D03*
X265305Y123888D02*
D03*
X261181Y123878D02*
D03*
X258602Y120020D02*
D03*
X258543Y123819D02*
D03*
X260797Y115069D02*
D03*
X256142Y114026D02*
D03*
X240984Y120335D02*
D03*
X250876Y117657D02*
D03*
X262372Y106417D02*
D03*
X260915Y133730D02*
D03*
X261870Y117953D02*
D03*
X264124Y115187D02*
D03*
X263458Y106669D02*
D03*
X261263Y104523D02*
D03*
X263287Y120049D02*
D03*
X263927Y116831D02*
D03*
X263396Y114970D02*
D03*
X231949Y112933D02*
D03*
X246604Y118780D02*
D03*
X237717Y122470D02*
D03*
X231978Y127412D02*
D03*
X227618Y125148D02*
D03*
D48*
X251837Y144749D02*
D03*
D49*
X263738Y119268D02*
D03*
Y119071D02*
D03*
Y118875D02*
D03*
Y118678D02*
D03*
Y118481D02*
D03*
Y118284D02*
D03*
Y118087D02*
D03*
Y117890D02*
D03*
Y117694D02*
D03*
Y117497D02*
D03*
Y117300D02*
D03*
Y117103D02*
D03*
X260195D02*
D03*
Y117300D02*
D03*
Y117497D02*
D03*
Y117694D02*
D03*
Y117890D02*
D03*
Y118087D02*
D03*
Y118284D02*
D03*
Y118481D02*
D03*
Y118678D02*
D03*
Y118875D02*
D03*
Y119071D02*
D03*
Y119268D02*
D03*
D50*
X263049Y116414D02*
D03*
D51*
X262852D02*
D03*
X262655D02*
D03*
X262458D02*
D03*
X262262D02*
D03*
X262065D02*
D03*
X261868D02*
D03*
X261671D02*
D03*
X261474D02*
D03*
X261277D02*
D03*
X261080D02*
D03*
X260884D02*
D03*
Y119957D02*
D03*
X261080D02*
D03*
X261277D02*
D03*
X261474D02*
D03*
X261671D02*
D03*
X261868D02*
D03*
X262065D02*
D03*
X262262D02*
D03*
X262458D02*
D03*
X262655D02*
D03*
X262852D02*
D03*
X263049D02*
D03*
D52*
X270768Y119275D02*
D03*
X267028D02*
D03*
D53*
X246826Y115750D02*
D03*
D54*
Y116250D02*
D03*
Y116750D02*
D03*
Y117250D02*
D03*
X248794Y115750D02*
D03*
Y116250D02*
D03*
Y116750D02*
D03*
Y117250D02*
D03*
D55*
X240395Y123720D02*
D03*
Y123220D02*
D03*
Y122720D02*
D03*
Y122220D02*
D03*
X238190Y123720D02*
D03*
Y123220D02*
D03*
Y122720D02*
D03*
D56*
Y122220D02*
D03*
D57*
X231554Y107780D02*
D03*
X230806D02*
D03*
X233944Y108430D02*
D03*
X233196D02*
D03*
X230556Y112470D02*
D03*
X231304D02*
D03*
X234406Y114140D02*
D03*
X235154D02*
D03*
X230496Y116990D02*
D03*
X231244D02*
D03*
X230616Y121440D02*
D03*
X231364D02*
D03*
X226150Y147557D02*
D03*
X226898D02*
D03*
X267106Y107205D02*
D03*
X267854D02*
D03*
X263674Y107194D02*
D03*
X262926D02*
D03*
X271614Y146368D02*
D03*
X270866D02*
D03*
D58*
X231716Y118796D02*
D03*
X232090D02*
D03*
X232464D02*
D03*
Y117851D02*
D03*
X231716D02*
D03*
Y114209D02*
D03*
X232090D02*
D03*
X232464D02*
D03*
Y113264D02*
D03*
X231716D02*
D03*
Y109622D02*
D03*
X232090D02*
D03*
X232464D02*
D03*
Y108678D02*
D03*
X231716D02*
D03*
X231656Y123382D02*
D03*
X232030D02*
D03*
X232404D02*
D03*
Y122438D02*
D03*
X231656D02*
D03*
D59*
X262278Y120925D02*
D03*
X263617D02*
D03*
D60*
X262125Y104400D02*
D03*
X263375D02*
D03*
M02*
