M48
;Layer_Color=9474304
;FILE_FORMAT=2:4
INCH,LZ
;TYPE=PLATED
T1F00S00C0.0280
T2F00S00C0.0300
T3F00S00C0.0354
T4F00S00C0.0394
T5F00S00C0.0433
T6F00S00C0.0480
T7F00S00C0.0512
T8F00S00C0.0551
T9F00S00C0.0591
T10F00S00C0.0669
T11F00S00C0.0787
T12F00S00C0.0800
T13F00S00C0.0906
T14F00S00C0.2559
%
T01
X23319Y10915
X231968Y10843
X22993Y109
X25942Y1067
X260944Y107519
X261811Y107087
X262372Y106417
X263458Y106669
X264074Y10655
X264528Y105709
X264291Y102244
X263031Y100394
X262047Y103583
X261263Y104523
X259975Y10488
X2604Y09845
X2581Y112057
X256673Y113061
X256142Y114026
X254606Y116289
X254626Y120945
X256457Y119823
X257313Y119626
X257717Y120089
X258602Y12002
X26013Y11978
X261671Y121449
X262942Y12066
X263287Y120049
X262936Y11732
X261843Y117122
X26187Y117953
X264726Y118099
X26471Y11671
X263927Y116831
X264124Y115187
X263396Y11497
X260797Y115069
X25813Y117992
X257717Y121555
X25812Y122343
X258543Y123819
X260738Y123356
Y122736
X261181Y123878
X263061Y123356
X265197Y122717
X265305Y123888
X263888Y112047
X250669Y115394
X250876Y117657
X246604Y11878
X243996Y119852
X24326Y12246
X240984Y120335
X238968Y121856
X237717Y12247
X23704Y11924
X23642Y11923
X23641Y11514
X23487Y11633
X23474Y1134
X23442Y11146
X23704Y11235
X243593Y116181
X244587Y115384
X23197Y11749
X231832Y119553
X23012Y12013
X23013Y12104
X231967Y122047
X231634Y123976
X22936Y11502
X231949Y112933
X231978Y127412
X227618Y125148
X23819Y12718
X237185Y133396
X2353Y13175
X249275Y133845
X2556Y13225
X25876Y13332
X260915Y13373
X26157Y13397
X260971Y13276
X26098Y13164
X26465Y13219
X258986Y127943
X2674Y15145
Y1526
X26225Y15215
X2629Y1506
X254006Y150906
T02
X241211Y123258
T03
X256689Y094469
Y095469
X267589
Y094469
X263061Y12689
Y12789
X257309Y127859
Y126859
X254291Y12688
Y12788
X266014Y1279
Y1269
X260915Y155325
X259915
T04
X262642Y096513
Y0973
X261658
Y096513
X24475Y134116
Y1351
Y136084
X2398Y138016
Y139
Y139984
X269152Y146242
X269939
Y147226
X269152
X2453Y153416
Y1544
Y155384
X22855Y147542
X227763
Y146558
X22855
T05
X271004Y121772
Y122772
Y123772
Y124772
X269862Y137874
X268862
Y138976
X269862
X269861Y140082
X268861
T06
X2366Y15345
Y15745
T07
X25415Y09445
Y09945
X2585Y0994
Y1044
X260079Y10835
X265079
Y1072
X26585Y1047
Y0997
X27015Y09945
Y09445
X270079Y1072
X265796Y113589
X266548Y115825
Y120825
X260796Y113589
X2309Y1299
X23255Y13175
X2309Y1349
X230197Y136093
X230157Y137628
X2311Y1387
X235157Y137628
X235197Y136093
X23725Y1366
X2378Y1351
X23755Y13175
X23845
X24345
X2428Y1351
X24225Y1366
Y1381
X24725
Y1351
X25225
X2544Y13605
Y13105
X254321Y129085
X259321
X263071Y130561
X261Y12541
X256
X266004Y129203
X268071Y130561
X271004Y129203
X261043Y153268
X256043
X2524Y1544
X2474
X2463Y15175
X2427Y1535
Y1485
X2415
Y1435
X24355Y14165
X23855
X2376
X2326
X2311Y1437
X2463Y15675
T08
X23415Y13345
Y134352
Y135253
Y138389
Y139291
Y140193
X236Y140189
Y139288
Y138386
Y13525
Y134348
Y133447
T09
X256033Y123346
X226368Y140256
X243681Y139783
X249459Y131752
X2516Y13015
X25105Y13719
X252625
X260128Y13747
X261703Y129419
X264439Y125098
X260709Y14725
X254Y1544
X24065Y15325
X243278Y145463
X226368Y142451
X248839Y156604
T10
X23255Y1329
Y1339
Y1349
X2326Y1387
Y1397
X23965Y1553
X24065
X24165
X2326Y1407
T11
X231831Y097521
X239508
X247185
X231831Y126064
X22805Y12975
Y138648
X239508Y126064
X247185
X23455Y15525
X225652
T12
X2374Y14725
X2334
T13
X264512Y09545
X259788
X271002Y144372
Y149096
X2267Y149412
Y144688
T14
X251837Y144749
M30
